<svg xmlns="http://www.w3.org/2000/svg" width="256" height="256" viewBox="0 0 100 100"><rect width="100" height="100" rx="20" fill="#008080"></rect><path fill="#fff" d="M25.74 76.20L25.74 76.20Q20.37 76.20 16.49 73.66Q12.61 71.13 10.53 66.68Q8.44 62.23 8.44 56.51L8.44 56.51Q8.44 50.70 10.59 46.23Q12.74 41.77 16.60 39.25Q20.47 36.73 25.64 36.73L25.64 36.73Q29.67 36.73 32.90 38.22Q36.13 39.71 38.19 42.39Q40.26 45.08 40.75 48.66L40.75 48.66L34.89 48.66Q34.22 46.05 31.92 44.02Q29.62 42.00 25.74 42.00L25.74 42.00Q22.31 42.00 19.74 43.77Q17.16 45.55 15.73 48.77Q14.30 51.99 14.30 56.31L14.30 56.31Q14.30 60.74 15.71 64.02Q17.11 67.30 19.69 69.12Q22.26 70.93 25.74 70.93L25.74 70.93Q28.03 70.93 29.89 70.13Q31.75 69.34 33.05 67.85Q34.34 66.36 34.89 64.27L34.89 64.27L40.75 64.27Q40.26 67.65 38.30 70.35Q36.35 73.04 33.16 74.62Q29.96 76.20 25.74 76.20ZM91.26 40.40L84.90 40.40Q84.08 37.89 82.75 35.89Q81.42 33.89 79.59 32.48Q77.77 31.06 75.45 30.31Q73.14 29.57 70.38 29.57L70.38 29.57Q65.86 29.57 62.16 31.90Q58.45 34.24 56.26 38.79Q54.08 43.34 54.08 49.95L54.08 49.95Q54.08 56.56 56.29 61.11Q58.50 65.66 62.28 68.00Q66.06 70.33 70.78 70.33L70.78 70.33Q75.16 70.33 78.50 68.46Q81.84 66.58 83.72 63.14Q85.60 59.69 85.60 55.02L85.60 55.02L87.49 55.42L72.17 55.42L72.17 49.95L91.56 49.95L91.56 55.42Q91.56 61.71 88.89 66.36Q86.22 71.00 81.53 73.55Q76.85 76.10 70.78 76.10L70.78 76.10Q64.02 76.10 58.91 72.92Q53.80 69.74 50.96 63.87Q48.11 58.00 48.11 49.95L48.11 49.95Q48.11 43.91 49.74 39.07Q51.37 34.24 54.35 30.83Q57.33 27.43 61.41 25.61Q65.49 23.80 70.38 23.80L70.38 23.80Q74.41 23.80 77.90 25.01Q81.40 26.21 84.14 28.41Q86.89 30.61 88.73 33.66Q90.57 36.70 91.26 40.40L91.26 40.40Z"></path></svg>